<mxfile host="app.diagrams.net" modified="2024-06-08T06:04:37.415Z" agent="Mozilla/5.0 (Windows NT 10.0; Win64; x64) AppleWebKit/537.36 (KHTML, like Gecko) Chrome/125.0.0.0 Safari/537.36" etag="zaDbgLThLd6d_Lrt0vGO" version="24.5.2" type="github" pages="2">
  <diagram name="ネットワークの基本事項" id="CW4LjTFH4unrgwnVh3lz">
    <mxGraphModel dx="1221" dy="608" grid="0" gridSize="10" guides="1" tooltips="1" connect="1" arrows="1" fold="1" page="0" pageScale="1" pageWidth="827" pageHeight="1169" math="0" shadow="0">
      <root>
        <mxCell id="0" />
        <mxCell id="1" parent="0" />
      </root>
    </mxGraphModel>
  </diagram>
  <diagram id="2QoPBqzWbXKWU9Kz32J1" name="ページ2">
    <mxGraphModel dx="1221" dy="608" grid="0" gridSize="10" guides="1" tooltips="1" connect="1" arrows="1" fold="1" page="1" pageScale="1" pageWidth="827" pageHeight="1169" math="0" shadow="0">
      <root>
        <mxCell id="0" />
        <mxCell id="1" parent="0" />
      </root>
    </mxGraphModel>
  </diagram>
</mxfile>
